<svg width="40" height="40" viewBox="0 0 40 40" fill="none" xmlns="http://www.w3.org/2000/svg">
  <path
    d="M20.0002 0C31.0456 0 40 8.95433 40 20C40 31.0457 31.0456 40 20 40C8.95425 40 0 31.0457 0 20C0 8.95433 8.95425 0 20.0002 0Z"
    fill="#DFE5E7" />
  <path
    d="M11.468 19.527C13.0174 19.527 14.2021 18.3709 14.2021 16.8595C14.2021 15.348 13.0174 14.1919 11.468 14.1919C9.91871 14.1919 8.73402 15.3478 8.73402 16.8595C8.73402 18.3711 9.9189 19.527 11.468 19.527ZM13.0339 22.8115C13.5366 22.3761 14.0865 21.9955 14.6738 21.6764C13.8727 21.2613 12.8235 20.9538 11.468 20.9538C7.27585 20.9538 6 23.888 6 23.888V25.3997H11.0245L11.0447 25.3532C11.1028 25.2197 11.6519 24.0142 13.0339 22.8115V22.8115ZM28.532 20.9538C27.2166 20.9538 26.1887 21.2428 25.3968 21.6394C26.0099 21.9659 26.5831 22.3592 27.1055 22.8115C28.4874 24.014 29.0363 25.2197 29.0945 25.3532L29.1146 25.3997H34V23.888C33.9998 23.888 32.724 20.9538 28.532 20.9538V20.9538ZM28.532 19.527C30.0813 19.527 31.266 18.3709 31.266 16.8595C31.266 15.348 30.0813 14.1919 28.532 14.1919C26.9826 14.1919 25.7979 15.3478 25.7979 16.8595C25.7979 18.3711 26.9826 19.527 28.532 19.527ZM20.0699 20.1281C20.3574 20.1284 20.6443 20.1016 20.9266 20.0479C21.0642 20.0217 21.1989 19.989 21.3307 19.9504C21.5284 19.8925 21.719 19.8212 21.9019 19.7373C22.1434 19.6265 22.3732 19.4928 22.5878 19.3379C23.0146 19.0299 23.3743 18.6422 23.6462 18.1974C23.8197 17.9139 23.9564 17.6106 24.0532 17.2943C24.1134 17.0985 24.1587 16.8987 24.1887 16.6964C24.2194 16.491 24.2352 16.2799 24.2352 16.064C24.2352 15.8481 24.2192 15.6369 24.1887 15.4317C24.1583 15.2295 24.113 15.0297 24.0532 14.8338C23.9181 14.3927 23.7057 13.9777 23.4253 13.6073C23.1892 13.2959 22.907 13.0205 22.5878 12.7902C22.3732 12.6353 22.1434 12.5015 21.9019 12.3908C21.7172 12.3061 21.5263 12.2348 21.3307 12.1777C21.1977 12.1388 21.0628 12.1063 20.9266 12.0801C20.6443 12.0265 20.3574 11.9997 20.0699 12C17.7095 12 15.9043 13.7611 15.9043 16.064C15.9043 18.367 17.7095 20.1281 20.0699 20.1281V20.1281ZM27.6054 25.1467C27.5318 25.0374 27.455 24.9301 27.3751 24.825C27.1765 24.5639 26.9607 24.3158 26.7289 24.0822C26.5204 23.8718 26.2999 23.6731 26.0683 23.4869C25.712 23.2008 25.3312 22.945 24.9301 22.7224C24.7129 22.6019 24.4903 22.491 24.263 22.3899C24.2561 22.3869 24.2498 22.3835 24.243 22.3805C23.1507 21.8972 21.7771 21.5611 20.0697 21.5611C18.362 21.5611 16.9885 21.8972 15.8963 22.3805C15.8587 22.3972 15.8235 22.4151 15.7865 22.4322C15.5493 22.5411 15.3174 22.6608 15.0918 22.7911C14.7338 22.9972 14.3926 23.2299 14.0712 23.4869C13.8396 23.6731 13.619 23.8718 13.4104 24.0822C13.179 24.3161 12.9633 24.5642 12.7644 24.825C12.6777 24.9392 12.6011 25.0471 12.5341 25.1467C12.4719 25.239 12.419 25.3233 12.3727 25.3997L12.361 25.4186C12.3196 25.4875 12.2798 25.5574 12.2416 25.6281C12.1793 25.7444 12.1505 25.8107 12.1505 25.8107V28H27.9892V25.8107C27.9892 25.8107 27.9201 25.653 27.767 25.3997C27.7151 25.3142 27.6612 25.2298 27.6054 25.1467V25.1467Z"
    fill="white" />
</svg>